<svg id="svg" version="1.1" xmlns="http://www.w3.org/2000/svg" xmlns:xlink="http://www.w3.org/1999/xlink" width="400" height="380.21638330757344" viewBox="0, 0, 400,380.21638330757344"><g id="svgg"><path id="path0" d="M196.487 34.601 L 196.586 68.821 197.723 68.821 C 198.348 68.821,198.859 68.992,198.859 69.202 C 198.859 69.411,199.534 69.582,200.358 69.582 C 201.182 69.582,201.946 69.727,202.056 69.905 C 202.166 70.083,203.919 70.345,205.952 70.488 C 207.985 70.631,209.830 70.892,210.052 71.068 C 210.275 71.245,211.440 71.508,212.643 71.653 C 213.845 71.799,214.829 72.057,214.829 72.228 C 214.829 72.398,215.299 72.630,215.875 72.743 C 217.434 73.050,220.315 73.913,220.532 74.139 C 220.923 74.544,226.015 76.806,226.536 76.806 C 226.724 76.806,227.174 77.133,227.536 77.532 C 227.897 77.932,228.649 78.373,229.207 78.513 C 229.764 78.653,230.308 78.883,230.414 79.025 C 230.819 79.562,233.426 81.369,233.796 81.369 C 234.009 81.369,234.320 81.593,234.487 81.867 C 234.654 82.141,235.219 82.656,235.741 83.012 C 238.663 85.001,247.148 93.417,247.148 94.325 C 247.148 94.500,247.556 95.049,248.053 95.547 C 248.551 96.045,249.076 96.823,249.220 97.276 C 249.363 97.728,249.640 98.099,249.836 98.099 C 250.840 98.099,248.861 100.211,233.044 116.022 C 222.931 126.132,216.038 133.301,216.239 133.502 C 216.900 134.162,331.019 133.742,330.798 133.080 C 330.694 132.766,330.564 107.058,330.511 75.951 C 330.448 39.320,330.282 19.392,330.041 19.392 C 329.836 19.392,323.069 25.991,315.005 34.057 L 300.341 48.722 299.571 47.743 C 298.450 46.318,297.712 45.627,297.311 45.627 C 297.117 45.627,296.958 45.375,296.958 45.067 C 296.958 44.478,286.886 34.221,286.308 34.221 C 286.124 34.221,285.252 33.451,284.370 32.510 C 283.488 31.568,282.623 30.798,282.449 30.798 C 282.274 30.798,281.496 30.200,280.720 29.468 C 279.944 28.736,279.166 28.137,278.990 28.137 C 278.815 28.137,278.274 27.709,277.790 27.186 C 277.305 26.663,276.727 26.236,276.504 26.236 C 276.282 26.236,275.874 26.022,275.598 25.760 C 274.493 24.716,270.731 22.053,270.359 22.053 C 270.140 22.053,269.962 21.885,269.962 21.680 C 269.962 21.475,269.534 21.200,269.011 21.069 C 268.489 20.937,268.061 20.678,268.061 20.491 C 268.061 20.305,267.804 20.152,267.490 20.152 C 267.177 20.152,266.920 19.984,266.920 19.779 C 266.920 19.574,266.492 19.299,265.970 19.168 C 265.447 19.036,265.019 18.776,265.019 18.590 C 265.019 18.404,264.677 18.251,264.259 18.251 C 263.840 18.251,263.498 18.083,263.498 17.878 C 263.498 17.673,263.070 17.398,262.548 17.266 C 262.025 17.135,261.597 16.889,261.597 16.719 C 261.597 16.549,261.084 16.297,260.456 16.160 C 259.829 16.022,259.316 15.752,259.316 15.559 C 259.316 15.367,259.059 15.209,258.745 15.209 C 258.432 15.209,258.175 15.046,258.175 14.846 C 258.175 14.646,257.576 14.371,256.844 14.233 C 256.112 14.096,255.511 13.875,255.509 13.741 C 255.505 13.515,255.002 13.265,251.273 11.634 C 250.510 11.300,249.612 11.027,249.277 11.027 C 248.943 11.027,248.669 10.856,248.669 10.646 C 248.669 10.437,248.432 10.266,248.142 10.266 C 247.853 10.266,247.125 10.011,246.526 9.698 C 245.927 9.386,245.052 9.129,244.582 9.128 C 244.111 9.127,243.726 8.954,243.726 8.745 C 243.726 8.536,243.489 8.365,243.199 8.365 C 242.910 8.365,242.182 8.109,241.583 7.797 C 240.984 7.485,240.119 7.228,239.661 7.227 C 239.203 7.225,238.732 7.069,238.615 6.880 C 238.498 6.690,237.547 6.417,236.501 6.274 C 235.456 6.130,234.601 5.857,234.601 5.668 C 234.601 5.478,234.098 5.323,233.483 5.323 C 232.867 5.323,232.266 5.164,232.146 4.970 C 232.026 4.775,230.946 4.497,229.747 4.352 C 228.548 4.207,227.395 3.960,227.186 3.803 C 226.722 3.455,225.145 3.138,220.913 2.545 C 219.135 2.295,217.488 1.966,217.253 1.813 C 217.018 1.660,214.152 1.420,210.884 1.279 C 207.617 1.138,204.943 0.878,204.943 0.701 C 204.943 0.525,203.018 0.380,200.665 0.380 L 196.388 0.380 196.487 34.601 " stroke="none" fill="#1c3cac" fill-rule="evenodd"></path><path id="path1" d="M83.172 0.605 C 82.624 1.153,84.171 2.826,97.857 16.488 C 111.176 29.784,112.241 30.942,111.567 31.397 C 108.449 33.501,97.339 44.713,93.807 49.319 C 93.359 49.903,92.773 50.517,92.504 50.684 C 92.235 50.852,92.015 51.159,92.015 51.367 C 92.015 51.575,91.587 52.173,91.065 52.696 C 90.542 53.219,90.114 53.767,90.114 53.915 C 90.113 54.062,89.686 54.680,89.163 55.287 C 88.640 55.895,88.213 56.537,88.213 56.713 C 88.213 56.890,87.913 57.351,87.548 57.738 C 86.341 59.012,85.551 60.079,85.551 60.433 C 85.551 60.625,85.337 61.016,85.076 61.301 C 84.382 62.058,83.660 63.212,83.405 63.973 C 83.282 64.339,83.049 64.639,82.887 64.639 C 82.725 64.639,82.485 65.067,82.353 65.589 C 82.222 66.112,81.947 66.540,81.742 66.540 C 81.537 66.540,81.369 66.797,81.369 67.110 C 81.369 67.424,81.205 67.681,81.006 67.681 C 80.806 67.681,80.530 68.279,80.393 69.011 C 80.256 69.743,80.012 70.342,79.851 70.342 C 79.490 70.342,75.813 77.744,75.460 79.183 C 75.318 79.758,75.086 80.228,74.942 80.228 C 74.799 80.228,74.362 81.169,73.971 82.319 C 73.580 83.470,73.117 84.411,72.942 84.411 C 72.767 84.411,72.623 84.796,72.621 85.266 C 72.620 85.737,72.363 86.612,72.051 87.211 C 71.738 87.810,71.483 88.623,71.483 89.017 C 71.483 89.411,71.331 89.734,71.146 89.734 C 70.960 89.734,70.693 90.504,70.552 91.445 C 70.411 92.386,70.135 93.156,69.939 93.156 C 69.742 93.156,69.582 93.574,69.582 94.084 C 69.582 94.594,69.431 95.106,69.246 95.220 C 69.061 95.334,68.793 96.368,68.649 97.517 C 68.505 98.667,68.242 99.698,68.064 99.808 C 67.886 99.918,67.621 101.118,67.476 102.475 C 67.331 103.833,67.061 104.943,66.876 104.943 C 66.691 104.943,66.540 105.593,66.540 106.388 C 66.540 107.183,66.373 108.000,66.168 108.204 C 65.964 108.409,65.682 110.074,65.541 111.905 C 65.400 113.737,65.140 115.325,64.962 115.435 C 64.784 115.544,64.639 116.702,64.639 118.007 C 64.639 119.312,64.485 120.543,64.298 120.741 C 64.110 120.940,63.894 124.268,63.816 128.137 C 63.739 132.006,63.733 134.786,63.804 134.316 L 63.931 133.460 98.280 133.460 L 132.629 133.460 132.878 129.753 C 133.015 127.714,133.277 125.703,133.460 125.285 C 133.643 124.867,133.879 123.926,133.983 123.194 C 134.396 120.306,135.082 117.282,135.403 116.939 C 135.589 116.740,135.741 116.195,135.741 115.726 C 135.741 115.257,135.893 114.780,136.079 114.665 C 136.264 114.551,136.527 113.864,136.663 113.138 C 136.799 112.413,137.160 111.341,137.464 110.758 C 137.769 110.174,138.019 109.411,138.020 109.062 C 138.022 108.714,138.151 108.371,138.308 108.302 C 138.693 108.130,139.924 105.882,139.924 105.350 C 139.924 105.116,140.608 103.841,141.445 102.516 C 142.281 101.192,142.966 99.950,142.966 99.758 C 142.966 99.565,143.308 99.161,143.726 98.859 C 144.144 98.558,144.487 98.117,144.487 97.880 C 144.487 97.643,144.910 96.954,145.428 96.348 C 145.945 95.743,146.589 94.989,146.857 94.673 C 147.126 94.357,147.943 93.354,148.673 92.443 C 150.388 90.303,153.909 86.692,154.279 86.692 C 154.437 86.692,155.293 86.008,156.182 85.171 C 157.070 84.335,157.890 83.650,158.004 83.650 C 158.118 83.650,158.608 83.222,159.092 82.700 C 159.577 82.177,160.155 81.749,160.378 81.749 C 160.600 81.749,161.047 81.484,161.371 81.160 C 161.903 80.628,163.622 82.235,179.092 97.727 C 188.514 107.163,196.412 114.821,196.643 114.744 C 196.943 114.644,197.033 109.833,196.956 97.891 C 196.898 88.699,196.746 63.042,196.619 40.875 L 196.388 0.570 195.288 0.445 C 194.674 0.375,194.032 0.542,193.834 0.825 C 193.558 1.217,193.435 1.225,193.287 0.860 C 193.086 0.365,83.666 0.111,83.172 0.605 M96.064 221.008 C 97.816 223.001,101.343 226.495,100.766 225.665 C 99.857 224.359,95.519 219.772,95.193 219.772 C 95.075 219.772,95.467 220.328,96.064 221.008 M102.943 228.422 C 106.168 231.555,110.660 235.545,111.138 235.702 C 111.390 235.785,110.426 234.716,108.994 233.326 C 107.563 231.936,106.307 230.798,106.203 230.798 C 105.963 230.798,104.003 229.020,102.744 227.662 C 102.211 227.087,101.620 226.616,101.430 226.616 C 101.240 226.616,101.921 227.429,102.943 228.422 M111.787 236.032 C 111.787 236.554,114.010 238.425,114.223 238.081 C 114.325 237.916,114.054 237.536,113.621 237.237 C 113.189 236.937,112.599 236.466,112.311 236.190 C 112.023 235.913,111.787 235.842,111.787 236.032 M115.405 239.394 C 115.950 239.939,116.499 240.282,116.624 240.157 C 116.880 239.901,115.282 238.403,114.753 238.403 C 114.567 238.403,114.860 238.849,115.405 239.394 " stroke="none" fill="#4383f3" fill-rule="evenodd"></path><path id="path2" d="M158.371 153.392 C 157.589 154.109,157.042 154.920,157.153 155.198 C 157.287 155.536,157.364 155.483,157.384 155.038 C 157.401 154.672,157.591 154.373,157.807 154.373 C 158.024 154.373,158.702 153.859,159.316 153.232 C 160.846 151.666,160.121 151.789,158.371 153.392 M153.612 158.175 C 152.941 158.802,152.586 159.316,152.824 159.316 C 153.063 159.316,153.759 158.802,154.373 158.175 C 154.986 157.548,155.340 157.034,155.160 157.034 C 154.981 157.034,154.284 157.548,153.612 158.175 M148.764 162.926 C 148.503 163.223,148.289 163.671,148.289 163.920 C 148.289 164.170,148.631 163.980,149.049 163.498 C 149.468 163.016,149.810 162.562,149.810 162.489 C 149.810 162.176,149.201 162.430,148.764 162.926 M240.391 180.694 C 239.402 181.578,238.522 182.348,238.435 182.405 C 238.348 182.463,238.352 182.586,238.445 182.679 C 238.538 182.772,239.551 182.009,240.695 180.984 C 241.839 179.959,242.644 179.113,242.482 179.104 C 242.320 179.095,241.379 179.811,240.391 180.694 M155.301 181.951 C 155.707 182.258,156.210 182.510,156.419 182.510 C 156.628 182.510,156.467 182.258,156.061 181.951 C 155.655 181.644,155.152 181.393,154.943 181.393 C 154.734 181.393,154.895 181.644,155.301 181.951 M273.004 183.133 C 273.004 183.451,274.237 184.383,274.678 184.399 C 274.867 184.405,274.627 184.068,274.144 183.650 C 273.210 182.839,273.004 182.746,273.004 183.133 M158.356 184.646 C 158.695 184.985,159.087 185.146,159.228 185.006 C 159.368 184.865,159.232 184.590,158.924 184.396 C 158.026 183.828,157.687 183.977,158.356 184.646 M163.498 188.235 C 163.498 188.457,163.657 188.540,163.852 188.419 C 164.047 188.299,164.313 188.374,164.445 188.587 C 164.576 188.799,164.887 188.968,165.137 188.961 C 165.386 188.955,165.257 188.698,164.851 188.391 C 163.981 187.732,163.498 187.677,163.498 188.235 M227.975 189.932 C 227.572 190.237,227.315 190.559,227.404 190.648 C 227.493 190.736,227.970 190.482,228.464 190.081 C 229.504 189.238,229.068 189.105,227.975 189.932 M167.325 190.334 C 167.827 190.939,168.441 191.052,168.441 190.539 C 168.441 190.354,168.089 190.111,167.659 189.998 C 167.017 189.830,166.957 189.891,167.325 190.334 M176.579 194.237 C 176.699 194.431,177.318 194.666,177.954 194.759 C 179.345 194.963,178.960 194.499,177.440 194.140 C 176.811 193.992,176.453 194.032,176.579 194.237 M218.441 194.506 L 217.300 195.026 218.441 194.798 C 219.664 194.553,219.992 194.388,219.740 194.142 C 219.653 194.056,219.068 194.220,218.441 194.506 M284.411 194.107 C 284.411 194.491,286.480 196.958,286.802 196.958 C 286.967 196.958,286.922 196.744,286.701 196.483 C 285.351 194.883,284.411 193.908,284.411 194.107 M212.357 196.094 C 211.730 196.183,211.060 196.408,210.869 196.593 C 210.418 197.032,213.375 196.591,213.859 196.148 C 214.087 195.939,214.087 195.838,213.859 195.874 C 213.661 195.906,212.985 196.005,212.357 196.094 M291.109 201.307 C 293.142 203.307,294.901 204.943,295.018 204.943 C 295.356 204.943,288.857 198.468,288.099 198.049 C 287.722 197.841,289.077 199.307,291.109 201.307 M295.754 205.989 C 297.669 207.819,298.528 208.393,297.166 206.934 C 296.340 206.048,295.527 205.323,295.360 205.323 C 295.193 205.323,295.370 205.623,295.754 205.989 M298.916 209.329 C 298.995 209.740,299.252 210.076,299.487 210.076 C 299.722 210.076,300.261 210.504,300.685 211.027 C 301.109 211.549,301.540 211.892,301.643 211.787 C 301.746 211.683,301.143 210.918,300.301 210.089 C 299.161 208.965,298.809 208.771,298.916 209.329 M301.901 212.467 C 301.901 212.627,302.243 213.052,302.662 213.410 C 303.080 213.768,303.422 213.930,303.422 213.769 C 303.422 213.608,303.080 213.184,302.662 212.826 C 302.243 212.468,301.901 212.306,301.901 212.467 M302.122 214.695 C 301.800 215.536,302.070 215.732,302.626 215.062 C 302.896 214.737,302.934 214.427,302.720 214.295 C 302.523 214.173,302.254 214.353,302.122 214.695 M92.907 218.838 C 92.565 219.729,92.934 219.834,93.459 218.994 C 93.752 218.524,93.778 218.251,93.527 218.251 C 93.310 218.251,93.031 218.515,92.907 218.838 M296.293 222.086 C 294.840 223.476,294.454 223.954,294.788 223.954 C 294.849 223.954,295.654 223.184,296.578 222.243 C 298.670 220.112,298.471 220.002,296.293 222.086 M88.430 223.411 C 88.102 223.740,87.833 224.196,87.833 224.425 C 87.833 224.654,87.877 224.770,87.932 224.683 C 87.986 224.596,88.355 224.140,88.751 223.669 C 89.570 222.696,89.335 222.507,88.430 223.411 M281.071 236.510 C 280.626 237.224,280.647 237.245,281.360 236.799 C 281.783 236.535,282.129 236.189,282.129 236.030 C 282.129 235.481,281.550 235.744,281.071 236.510 M71.061 240.779 L 70.612 241.635 71.523 240.879 C 72.024 240.463,72.505 240.078,72.592 240.023 C 72.679 239.969,72.471 239.924,72.130 239.924 C 71.789 239.924,71.308 240.309,71.061 240.779 M274.525 241.419 C 274.525 241.614,274.198 241.877,273.799 242.004 C 273.400 242.131,272.974 242.495,272.852 242.814 C 272.690 243.236,272.939 243.173,273.767 242.584 C 274.765 241.873,275.269 241.065,274.715 241.065 C 274.610 241.065,274.525 241.224,274.525 241.419 M68.692 243.279 C 67.780 244.286,67.914 244.633,68.853 243.695 C 69.289 243.259,69.573 242.830,69.484 242.742 C 69.396 242.653,69.039 242.895,68.692 243.279 M122.814 243.932 C 122.814 244.295,123.703 245.076,124.430 245.352 C 125.376 245.710,125.259 245.511,123.954 244.547 C 123.327 244.083,122.814 243.806,122.814 243.932 M66.118 245.722 L 65.669 246.578 66.580 245.822 C 67.081 245.406,67.562 245.021,67.649 244.966 C 67.736 244.912,67.528 244.867,67.187 244.867 C 66.846 244.867,66.365 245.252,66.118 245.722 M266.375 246.750 C 265.971 246.897,265.808 247.121,266.013 247.248 C 266.405 247.490,267.599 246.928,267.289 246.646 C 267.191 246.557,266.779 246.603,266.375 246.750 M128.517 247.900 C 128.517 248.065,128.859 248.290,129.278 248.399 C 129.696 248.509,130.038 248.463,130.038 248.298 C 130.038 248.133,129.696 247.908,129.278 247.799 C 128.859 247.689,128.517 247.735,128.517 247.900 M132.107 250.012 C 132.513 250.319,133.026 250.565,133.248 250.558 C 133.469 250.552,133.318 250.295,132.912 249.988 C 132.506 249.681,131.993 249.435,131.771 249.442 C 131.550 249.448,131.701 249.705,132.107 250.012 M169.962 263.878 C 169.962 264.087,170.314 264.259,170.745 264.259 C 171.175 264.259,171.422 264.087,171.293 263.878 C 171.164 263.669,170.811 263.498,170.510 263.498 C 170.209 263.498,169.962 263.669,169.962 263.878 M181.590 265.830 C 181.702 266.012,182.326 266.160,182.976 266.160 C 184.443 266.160,184.191 265.828,182.582 265.640 C 181.925 265.564,181.478 265.649,181.590 265.830 M188.581 266.335 C 189.044 266.893,192.553 267.102,192.213 266.552 C 192.120 266.403,191.354 266.300,190.509 266.325 C 189.664 266.349,188.973 266.236,188.973 266.074 C 188.973 265.912,188.781 265.779,188.547 265.779 C 188.247 265.779,188.257 265.945,188.581 266.335 M203.043 266.635 C 203.041 267.015,204.625 266.990,205.239 266.600 C 205.537 266.411,205.206 266.303,204.384 266.321 C 203.647 266.337,203.044 266.478,203.043 266.635 M193.251 266.802 C 193.617 266.898,194.216 266.898,194.582 266.802 C 194.948 266.706,194.648 266.628,193.916 266.628 C 193.184 266.628,192.885 266.706,193.251 266.802 M199.529 266.809 C 200.002 266.900,200.687 266.896,201.050 266.801 C 201.414 266.706,201.027 266.632,200.190 266.636 C 199.354 266.640,199.056 266.718,199.529 266.809 M84.030 317.110 C 83.717 317.313,82.979 317.481,82.392 317.485 C 81.778 317.488,81.424 317.652,81.559 317.871 C 81.688 318.080,81.613 318.251,81.391 318.251 C 81.170 318.251,80.989 318.053,80.989 317.812 C 80.989 317.558,80.678 317.654,80.252 318.039 C 79.847 318.406,79.376 318.623,79.206 318.523 C 78.662 318.201,77.186 318.966,77.186 319.569 C 77.186 319.890,77.005 320.152,76.784 320.152 C 76.562 320.152,76.487 319.981,76.616 319.772 C 76.745 319.563,76.670 319.392,76.448 319.392 C 76.227 319.392,76.046 319.551,76.046 319.746 C 76.046 319.941,75.676 320.218,75.224 320.362 C 74.106 320.716,70.342 324.562,70.342 325.349 C 70.342 325.697,70.233 325.873,70.099 325.739 C 69.807 325.447,68.441 327.892,68.441 328.706 C 68.441 329.020,68.278 329.278,68.078 329.278 C 67.878 329.278,67.612 329.919,67.487 330.703 C 67.361 331.488,67.097 332.426,66.899 332.790 C 66.702 333.153,66.540 333.975,66.540 334.618 C 66.540 335.300,66.382 335.689,66.160 335.551 C 65.951 335.422,65.779 335.498,65.779 335.719 C 65.779 335.940,65.972 336.122,66.206 336.122 C 66.488 336.122,66.459 336.331,66.123 336.736 C 65.562 337.412,65.137 357.795,65.685 357.794 C 65.841 357.794,65.910 358.752,65.837 359.924 C 65.761 361.146,65.883 362.233,66.122 362.472 C 66.352 362.702,66.540 363.273,66.540 363.742 C 66.540 364.210,66.689 364.686,66.870 364.798 C 67.052 364.910,67.307 365.668,67.437 366.481 C 67.567 367.295,67.931 368.453,68.245 369.056 C 68.559 369.659,68.818 370.376,68.819 370.650 C 68.820 370.924,68.992 371.042,69.202 370.913 C 69.411 370.783,69.582 371.040,69.582 371.483 C 69.582 371.926,69.753 372.182,69.962 372.053 C 70.171 371.924,70.342 372.085,70.342 372.412 C 70.342 373.305,75.217 378.054,75.875 377.802 C 76.202 377.676,76.426 377.818,76.426 378.149 C 76.426 378.456,76.754 378.707,77.155 378.707 C 77.555 378.707,77.941 378.881,78.012 379.094 C 78.431 380.349,93.723 380.443,94.647 379.195 C 94.768 379.031,95.209 378.837,95.627 378.764 C 96.046 378.691,96.473 378.500,96.578 378.340 C 96.683 378.180,97.144 377.932,97.604 377.788 C 98.064 377.645,98.545 377.198,98.673 376.794 C 98.801 376.391,99.027 376.100,99.175 376.148 C 99.633 376.297,101.442 374.378,101.604 373.574 C 101.688 373.156,101.962 372.857,102.213 372.910 C 102.787 373.031,104.689 368.953,104.330 368.372 C 104.156 368.090,104.238 368.050,104.569 368.255 C 104.932 368.479,105.006 368.393,104.834 367.945 C 104.703 367.604,104.760 367.224,104.960 367.100 C 105.160 366.976,105.323 366.297,105.323 365.589 C 105.323 364.882,105.494 364.198,105.703 364.068 C 105.913 363.939,106.084 362.902,106.084 361.765 L 106.084 359.696 101.759 359.696 L 97.433 359.696 97.196 360.884 C 97.065 361.538,96.958 362.640,96.958 363.333 C 96.958 364.027,96.787 364.700,96.578 364.829 C 96.369 364.958,96.198 365.471,96.198 365.970 C 96.198 366.468,96.040 366.973,95.847 367.092 C 95.654 367.211,95.387 367.804,95.254 368.409 C 95.121 369.014,94.605 369.815,94.107 370.189 C 93.609 370.563,93.276 370.989,93.366 371.135 C 93.457 371.282,93.084 371.514,92.537 371.651 C 91.990 371.788,91.317 372.126,91.041 372.402 C 90.765 372.678,90.102 372.856,89.566 372.797 C 89.031 372.739,88.593 372.810,88.593 372.957 C 88.593 373.103,87.353 373.099,85.837 372.947 C 84.320 372.795,82.736 372.660,82.316 372.647 C 81.895 372.634,81.043 372.153,80.422 371.578 C 79.801 371.003,79.181 370.568,79.045 370.612 C 78.909 370.656,78.478 370.327,78.087 369.882 C 77.694 369.433,77.619 369.214,77.921 369.391 C 78.220 369.568,78.006 369.110,77.445 368.375 C 76.885 367.640,76.426 366.765,76.426 366.431 C 76.426 366.098,76.255 365.719,76.046 365.589 C 75.837 365.460,75.665 365.022,75.665 364.616 C 75.665 364.210,75.529 363.878,75.362 363.878 C 75.194 363.878,75.130 363.256,75.219 362.496 C 75.310 361.720,75.229 361.207,75.034 361.327 C 74.636 361.573,74.546 360.844,74.558 357.479 C 74.563 356.155,74.365 354.829,74.119 354.532 C 73.799 354.146,73.793 353.992,74.097 353.992 C 74.399 353.992,74.519 351.613,74.508 345.822 C 74.498 340.415,74.639 337.378,74.926 336.843 C 75.164 336.399,75.295 335.489,75.217 334.822 C 75.124 334.026,75.307 333.364,75.750 332.898 C 76.122 332.506,76.426 331.941,76.426 331.642 C 76.426 331.343,76.939 330.450,77.567 329.658 C 78.194 328.866,78.707 328.038,78.707 327.819 C 78.707 327.600,78.905 327.299,79.146 327.150 C 79.443 326.967,79.483 327.052,79.271 327.413 C 79.098 327.706,79.434 327.479,80.018 326.907 C 80.602 326.335,81.231 325.960,81.415 326.074 C 81.599 326.188,81.749 326.099,81.749 325.878 C 81.749 325.656,82.163 325.475,82.668 325.475 C 83.173 325.475,83.644 325.317,83.714 325.124 C 83.835 324.789,86.277 324.606,89.544 324.688 C 90.673 324.717,90.918 324.821,90.494 325.095 C 90.047 325.384,90.140 325.465,90.929 325.469 C 91.482 325.473,92.033 325.734,92.154 326.049 C 92.275 326.365,92.507 326.601,92.670 326.574 C 93.388 326.457,93.945 326.642,93.762 326.939 C 93.652 327.116,93.875 327.597,94.258 328.008 C 95.638 329.489,96.812 332.807,97.168 336.231 L 97.397 338.432 101.749 338.377 L 106.100 338.321 106.027 335.986 C 105.987 334.701,105.836 333.479,105.691 333.270 C 105.547 333.061,105.326 332.120,105.201 331.179 C 104.959 329.362,104.182 327.384,103.707 327.379 C 103.550 327.378,103.422 327.055,103.422 326.663 C 103.422 326.270,103.165 325.736,102.852 325.475 C 102.538 325.215,102.281 324.804,102.281 324.563 C 102.281 324.321,101.811 323.671,101.236 323.118 C 100.661 322.566,99.799 321.672,99.321 321.133 C 98.843 320.593,98.202 320.152,97.895 320.152 C 97.589 320.152,97.338 320.000,97.338 319.815 C 97.338 319.312,94.899 318.251,93.741 318.251 C 93.186 318.251,92.815 318.114,92.919 317.947 C 93.022 317.779,92.515 317.603,91.793 317.554 C 91.070 317.505,90.043 317.300,89.511 317.098 C 87.902 316.486,86.011 316.638,85.813 317.395 C 85.648 318.029,85.637 318.029,85.595 317.395 C 85.547 316.660,84.907 316.544,84.030 317.110 M272.431 317.258 C 271.803 317.532,270.905 317.697,270.435 317.626 C 269.966 317.554,269.582 317.643,269.582 317.823 C 269.582 318.003,268.858 318.248,267.974 318.366 C 267.090 318.485,266.305 318.764,266.231 318.987 C 266.157 319.209,265.854 319.392,265.558 319.392 C 265.261 319.392,265.019 319.563,265.019 319.772 C 265.019 319.981,264.789 320.152,264.508 320.152 C 263.818 320.152,261.977 321.767,261.977 322.373 C 261.977 322.640,261.795 322.746,261.571 322.608 C 261.348 322.470,261.072 322.714,260.958 323.151 C 260.844 323.588,260.630 323.871,260.482 323.780 C 260.335 323.689,260.015 323.905,259.772 324.260 C 258.029 326.800,257.394 327.897,257.187 328.721 C 257.057 329.240,256.798 329.759,256.612 329.874 C 256.426 329.989,256.274 330.486,256.274 330.979 C 256.274 331.472,256.104 331.933,255.897 332.003 C 255.690 332.072,255.409 333.199,255.273 334.506 C 255.136 335.813,254.874 336.882,254.689 336.882 C 254.171 336.882,254.322 358.607,254.845 359.237 C 255.170 359.628,255.142 359.835,254.732 360.089 C 254.299 360.356,254.285 360.521,254.661 360.897 C 254.921 361.156,255.133 361.891,255.133 362.529 C 255.133 363.166,255.467 364.566,255.875 365.640 C 256.283 366.713,256.497 367.724,256.350 367.887 C 256.204 368.050,256.298 368.060,256.559 367.909 C 256.858 367.737,257.034 367.869,257.034 368.266 C 257.034 369.039,258.157 371.490,258.826 372.175 C 259.095 372.452,259.316 372.826,259.316 373.007 C 259.316 373.814,263.759 377.593,266.076 378.755 L 268.631 380.038 275.108 380.038 C 281.629 380.038,284.282 379.544,285.250 378.151 C 285.398 377.938,285.826 377.762,286.201 377.760 C 286.576 377.758,286.839 377.543,286.787 377.281 C 286.707 376.881,287.239 376.609,287.548 376.894 C 287.863 377.185,290.115 374.640,290.120 373.987 C 290.125 373.335,290.192 373.296,290.494 373.764 C 290.809 374.252,290.864 374.238,290.869 373.669 C 290.872 373.303,291.027 373.004,291.214 373.004 C 291.400 373.004,291.660 372.576,291.791 372.053 C 291.922 371.530,292.198 371.103,292.403 371.103 C 292.608 371.103,292.776 370.771,292.776 370.365 C 292.776 369.959,292.939 369.526,293.139 369.402 C 293.339 369.278,293.407 368.926,293.289 368.619 C 293.171 368.312,293.227 368.061,293.413 368.061 C 293.598 368.061,293.788 367.608,293.834 367.054 C 293.880 366.500,294.091 365.837,294.304 365.581 C 294.517 365.324,294.645 364.083,294.589 362.822 C 294.533 361.561,294.615 360.608,294.772 360.705 C 294.929 360.802,295.057 360.615,295.057 360.289 C 295.057 359.785,294.377 359.696,290.532 359.696 L 286.008 359.696 286.008 361.046 C 286.008 361.789,285.799 362.900,285.544 363.515 C 285.290 364.130,285.162 365.057,285.261 365.575 C 285.360 366.093,285.295 366.426,285.116 366.316 C 284.937 366.205,284.791 366.467,284.791 366.898 C 284.791 367.328,284.609 367.681,284.387 367.681 C 284.164 367.681,284.032 367.980,284.093 368.346 C 284.186 368.905,281.747 371.837,281.172 371.857 C 281.071 371.860,280.722 371.863,280.396 371.863 C 280.070 371.863,279.909 372.034,280.038 372.243 C 280.167 372.452,279.963 372.645,279.585 372.672 C 279.207 372.699,278.555 372.764,278.137 372.817 C 276.998 372.962,273.628 373.082,273.194 372.994 C 272.985 372.951,272.643 372.893,272.433 372.865 C 271.222 372.702,268.403 371.188,268.214 370.600 C 268.070 370.149,267.776 369.990,267.373 370.145 C 267.032 370.275,266.870 370.265,267.013 370.122 C 267.383 369.752,266.576 368.374,266.145 368.640 C 265.949 368.762,265.890 368.595,266.015 368.271 C 266.139 367.946,266.059 367.681,265.837 367.681 C 265.615 367.681,265.321 367.080,265.183 366.346 C 265.046 365.611,264.781 364.917,264.596 364.802 C 264.410 364.688,264.259 364.210,264.259 363.742 C 264.259 363.273,264.053 362.684,263.801 362.433 C 262.845 361.476,262.958 334.602,263.916 335.194 C 264.104 335.311,264.259 334.978,264.259 334.456 C 264.259 333.933,264.408 333.413,264.590 333.300 C 264.772 333.188,265.025 332.576,265.152 331.940 C 265.279 331.304,265.723 330.419,266.138 329.973 C 266.554 329.527,266.815 329.035,266.719 328.880 C 266.623 328.724,266.811 328.495,267.137 328.370 C 267.468 328.242,267.609 327.948,267.456 327.701 C 267.298 327.445,267.348 327.361,267.574 327.501 C 267.789 327.634,268.272 327.334,268.646 326.835 C 269.021 326.336,269.539 326.009,269.797 326.108 C 270.054 326.207,270.378 326.105,270.516 325.881 C 270.654 325.658,271.099 325.475,271.505 325.475 C 271.911 325.475,272.243 325.304,272.243 325.095 C 272.243 324.868,273.708 324.715,275.878 324.715 C 278.204 324.715,279.428 324.852,279.278 325.095 C 279.148 325.304,279.395 325.475,279.825 325.475 C 280.256 325.475,280.608 325.646,280.608 325.856 C 280.608 326.065,280.870 326.236,281.191 326.236 C 281.511 326.236,281.871 326.491,281.991 326.804 C 282.111 327.116,282.338 327.292,282.495 327.195 C 282.653 327.098,283.096 327.602,283.480 328.315 C 283.864 329.028,284.343 329.510,284.543 329.386 C 284.748 329.259,284.785 329.360,284.627 329.616 C 284.472 329.866,284.497 330.278,284.683 330.530 C 284.869 330.782,285.072 331.587,285.134 332.319 C 285.196 333.051,285.422 333.978,285.636 334.378 C 285.850 334.779,286.010 335.891,285.991 336.850 C 285.967 338.089,286.062 338.428,286.319 338.023 C 286.559 337.644,286.682 337.612,286.686 337.928 C 286.690 338.279,287.789 338.403,290.893 338.403 L 295.095 338.403 294.824 336.027 C 294.675 334.720,294.555 333.394,294.558 333.080 C 294.560 332.766,294.416 332.414,294.239 332.297 C 294.061 332.180,293.844 331.347,293.758 330.446 C 293.671 329.546,293.414 328.624,293.188 328.397 C 292.961 328.170,292.776 327.769,292.776 327.506 C 292.776 326.679,290.754 323.638,289.941 323.243 C 289.513 323.035,289.387 322.854,289.661 322.839 C 290.348 322.804,289.827 322.053,289.116 322.053 C 288.800 322.053,287.979 321.497,287.290 320.817 C 285.402 318.955,284.918 318.637,283.563 318.373 C 282.879 318.240,282.227 317.993,282.114 317.823 C 282.002 317.654,280.938 317.483,279.752 317.445 C 278.565 317.406,277.669 317.251,277.762 317.102 C 278.063 316.615,273.608 316.746,272.431 317.258 M129.889 318.852 C 129.762 319.183,129.658 319.868,129.658 320.373 C 129.658 320.879,129.526 321.293,129.364 321.293 C 129.036 321.293,128.197 324.145,127.882 326.331 C 127.769 327.115,127.537 327.757,127.367 327.757 C 127.196 327.757,126.938 328.313,126.792 328.992 C 126.647 329.672,126.358 330.440,126.149 330.699 C 125.941 330.957,125.870 331.428,125.991 331.744 C 126.113 332.061,126.059 332.319,125.873 332.319 C 125.472 332.319,124.756 334.353,124.635 335.837 C 124.588 336.412,124.450 336.882,124.328 336.882 C 124.034 336.882,123.302 339.004,122.984 340.779 C 122.844 341.564,122.589 342.205,122.419 342.205 C 122.248 342.205,121.991 343.144,121.847 344.292 C 121.704 345.440,121.435 346.286,121.250 346.171 C 121.064 346.056,120.913 346.486,120.913 347.126 C 120.913 347.766,120.745 348.289,120.540 348.289 C 120.335 348.289,120.226 348.798,120.299 349.421 C 120.371 350.043,120.282 350.461,120.101 350.349 C 119.920 350.237,119.772 350.498,119.772 350.928 C 119.772 351.359,119.601 351.711,119.392 351.711 C 119.183 351.711,119.011 352.064,119.011 352.496 C 119.011 352.928,118.823 353.635,118.592 354.066 C 118.270 354.668,118.292 354.925,118.687 355.176 C 119.087 355.429,119.053 355.503,118.536 355.507 C 118.055 355.512,117.871 355.822,117.871 356.632 C 117.871 357.247,117.710 357.849,117.512 357.971 C 117.315 358.093,117.039 358.959,116.899 359.895 C 116.759 360.831,116.492 361.597,116.307 361.597 C 116.121 361.597,115.970 361.905,115.970 362.281 C 115.970 362.658,115.793 363.142,115.577 363.358 C 115.361 363.574,115.128 364.375,115.060 365.137 C 114.991 365.900,114.741 366.759,114.502 367.046 C 114.264 367.333,114.032 368.021,113.986 368.575 C 113.940 369.129,113.774 369.582,113.617 369.582 C 113.460 369.582,113.430 369.838,113.551 370.152 C 113.679 370.485,113.555 370.725,113.254 370.728 C 112.855 370.733,112.868 370.818,113.308 371.103 C 113.722 371.370,113.742 371.473,113.381 371.477 C 113.107 371.480,112.980 371.640,113.099 371.832 C 113.218 372.025,113.088 372.410,112.810 372.688 C 112.101 373.398,111.754 374.904,112.298 374.911 C 112.544 374.914,112.486 375.079,112.167 375.285 C 111.854 375.488,111.752 375.656,111.941 375.660 C 112.130 375.663,112.024 375.965,111.704 376.331 C 111.384 376.697,111.011 377.619,110.875 378.380 L 110.628 379.764 115.174 379.823 L 119.720 379.882 119.980 378.149 C 120.123 377.196,120.391 376.323,120.576 376.209 C 120.761 376.094,120.913 375.593,120.913 375.095 C 120.913 374.597,121.098 374.075,121.324 373.935 C 121.550 373.796,121.632 373.272,121.506 372.772 C 121.378 372.259,121.447 371.863,121.666 371.863 C 121.879 371.863,122.053 371.470,122.053 370.989 C 122.053 370.508,122.218 369.950,122.419 369.749 C 122.619 369.548,122.866 368.719,122.967 367.908 C 123.068 367.096,123.331 366.251,123.552 366.030 C 123.773 365.808,123.954 365.234,123.954 364.753 L 123.954 363.878 133.703 363.878 C 144.177 363.878,144.440 363.928,144.475 365.897 C 144.481 366.275,144.627 366.498,144.798 366.392 C 144.969 366.286,145.039 366.684,144.952 367.275 C 144.865 367.867,144.981 368.467,145.211 368.609 C 145.440 368.750,145.627 369.274,145.627 369.772 C 145.627 370.270,145.779 370.771,145.964 370.885 C 146.149 371.000,146.420 371.892,146.566 372.868 C 146.713 373.845,147.059 374.870,147.337 375.148 C 147.614 375.425,147.751 375.997,147.640 376.419 C 147.528 376.850,147.626 377.186,147.864 377.186 C 148.098 377.186,148.289 377.515,148.289 377.916 C 148.289 379.728,148.548 379.848,152.481 379.848 C 154.533 379.848,156.482 379.744,156.813 379.617 C 157.464 379.367,157.659 377.567,157.034 377.567 C 156.825 377.567,156.654 377.139,156.654 376.616 C 156.654 376.093,156.488 375.665,156.286 375.665 C 156.083 375.665,156.009 375.426,156.122 375.134 C 156.234 374.841,156.143 374.489,155.919 374.351 C 155.696 374.213,155.513 373.606,155.513 373.004 C 155.513 372.401,155.342 371.802,155.133 371.673 C 154.924 371.544,154.750 370.978,154.747 370.415 C 154.742 369.587,154.664 369.500,154.336 369.962 C 154.024 370.401,153.983 370.292,154.159 369.487 C 154.284 368.912,154.249 368.441,154.081 368.441 C 153.912 368.441,153.733 367.901,153.682 367.241 C 153.631 366.570,153.218 365.709,152.746 365.288 C 152.146 364.754,152.044 364.485,152.395 364.360 C 152.782 364.221,152.753 363.974,152.261 363.223 C 151.829 362.565,151.794 362.361,152.147 362.574 C 152.549 362.816,152.568 362.764,152.236 362.335 C 152.002 362.034,151.691 361.124,151.544 360.314 C 151.267 358.774,150.646 357.419,150.000 356.945 C 149.776 356.781,149.854 356.661,150.190 356.654 C 150.608 356.645,150.636 356.563,150.295 356.346 C 150.039 356.184,149.752 355.630,149.658 355.117 C 149.563 354.603,149.453 354.097,149.413 353.992 C 149.373 353.888,149.366 353.656,149.398 353.477 C 149.430 353.298,149.283 352.943,149.070 352.687 C 148.858 352.431,148.633 351.893,148.571 351.491 C 148.508 351.089,148.340 350.573,148.197 350.344 C 148.054 350.115,147.823 349.217,147.684 348.348 C 147.545 347.479,147.304 346.768,147.148 346.768 C 146.993 346.768,146.755 346.076,146.619 345.231 C 146.376 343.709,145.734 342.232,145.120 341.783 C 144.945 341.655,144.832 341.398,144.868 341.212 C 144.904 341.026,144.808 340.190,144.654 339.354 C 144.501 338.517,144.400 337.704,144.431 337.548 C 144.462 337.391,144.316 337.262,144.106 337.262 C 143.897 337.262,143.726 337.006,143.726 336.692 C 143.726 336.378,143.512 336.119,143.251 336.116 C 142.901 336.112,142.912 336.024,143.292 335.783 C 143.604 335.585,143.659 335.364,143.430 335.223 C 143.223 335.095,142.940 334.232,142.801 333.306 C 142.662 332.379,142.296 331.412,141.988 331.156 C 141.669 330.891,141.524 330.387,141.652 329.984 C 141.780 329.581,141.692 329.278,141.448 329.278 C 141.212 329.278,141.106 329.138,141.212 328.967 C 141.415 328.638,140.729 326.423,140.135 325.492 C 139.942 325.188,139.727 324.427,139.658 323.801 C 139.590 323.175,139.408 322.568,139.253 322.453 C 139.099 322.338,138.914 321.816,138.842 321.293 C 138.770 320.770,138.556 320.285,138.367 320.215 C 138.178 320.146,138.023 319.675,138.023 319.170 C 138.023 317.992,130.334 317.692,129.889 318.852 M164.732 348.940 L 164.829 379.658 169.086 379.765 L 173.344 379.872 173.373 368.000 C 173.389 361.471,173.448 356.083,173.504 356.027 C 173.559 355.972,177.148 355.899,181.479 355.865 C 185.810 355.831,189.354 355.653,189.354 355.468 C 189.354 355.284,189.482 355.162,189.639 355.198 C 190.369 355.365,193.505 354.629,193.322 354.334 C 193.209 354.151,193.360 354.095,193.657 354.209 C 193.955 354.323,194.442 354.172,194.741 353.874 C 195.039 353.576,195.617 353.225,196.025 353.094 C 197.978 352.469,201.901 347.487,201.901 345.633 C 201.901 345.211,202.095 344.867,202.331 344.867 C 202.615 344.867,202.683 344.383,202.532 343.441 C 202.375 342.463,202.417 342.194,202.667 342.586 C 202.920 342.984,203.052 342.353,203.101 340.494 C 203.140 339.030,203.190 337.540,203.213 337.181 C 203.389 334.396,202.680 329.991,201.873 328.857 C 201.388 328.176,201.239 327.763,201.541 327.939 C 201.844 328.115,201.663 327.777,201.141 327.186 C 200.618 326.596,200.402 326.235,200.661 326.384 C 200.978 326.567,201.058 326.463,200.906 326.065 C 200.781 325.741,200.526 325.475,200.340 325.475 C 200.153 325.475,200.000 325.219,200.000 324.905 C 200.000 324.591,199.743 324.335,199.430 324.335 C 199.116 324.335,198.902 324.187,198.954 324.008 C 199.103 323.496,195.813 320.546,194.813 320.295 C 194.320 320.171,193.916 319.897,193.916 319.686 C 193.916 319.475,193.580 319.391,193.170 319.498 C 192.759 319.606,192.235 319.466,192.004 319.188 C 191.455 318.527,192.216 318.569,177.469 318.383 L 164.634 318.222 164.732 348.940 M207.985 321.863 C 207.985 325.052,208.063 325.475,208.650 325.469 C 209.225 325.464,209.238 325.408,208.745 325.053 C 208.271 324.712,208.292 324.681,208.871 324.869 C 209.254 324.993,212.890 325.095,216.951 325.095 L 224.335 325.095 224.335 352.471 L 224.335 379.848 228.517 379.848 L 232.700 379.848 232.700 352.444 L 232.700 325.040 240.685 325.163 L 248.670 325.285 248.670 321.768 L 248.669 318.251 228.327 318.251 L 207.985 318.251 207.985 321.863 M304.067 318.493 C 303.565 318.995,303.754 378.887,304.259 379.392 C 305.008 380.141,312.783 380.013,313.077 379.246 C 313.204 378.916,313.308 372.499,313.308 364.988 L 313.308 351.331 324.710 351.331 L 336.112 351.331 336.212 365.494 L 336.312 379.658 340.779 379.765 L 345.247 379.872 345.247 349.292 C 345.247 321.758,345.187 318.690,344.646 318.482 C 344.315 318.355,342.433 318.251,340.463 318.251 L 336.882 318.251 336.795 331.274 L 336.707 344.297 336.502 331.179 L 336.297 318.061 336.209 331.274 L 336.122 344.487 324.620 344.487 L 313.118 344.487 313.118 331.464 L 313.118 318.441 308.725 318.335 C 306.309 318.276,304.213 318.347,304.067 318.493 M372.755 318.838 C 372.631 319.160,372.635 319.530,372.763 319.658 C 372.892 319.787,372.788 320.144,372.533 320.452 C 371.793 321.343,370.753 325.069,371.171 325.327 C 371.373 325.452,371.207 325.787,370.801 326.071 C 370.380 326.367,369.957 327.253,369.816 328.139 C 369.679 328.993,369.420 329.983,369.239 330.340 C 368.484 331.830,368.110 332.975,367.910 334.408 C 367.794 335.243,367.523 335.984,367.309 336.055 C 367.095 336.127,366.920 336.588,366.920 337.081 C 366.920 337.575,366.732 338.094,366.502 338.237 C 366.256 338.389,366.177 338.986,366.311 339.685 C 366.486 340.599,366.443 340.743,366.126 340.304 C 365.793 339.844,365.750 339.899,365.901 340.590 C 366.017 341.117,365.868 341.570,365.515 341.768 C 365.113 341.993,364.995 342.486,365.120 343.418 C 365.257 344.431,365.131 344.852,364.589 345.190 C 364.198 345.434,363.878 346.050,363.878 346.559 C 363.878 347.067,363.707 347.590,363.497 347.719 C 363.287 347.849,363.206 348.471,363.317 349.102 C 363.446 349.834,363.378 350.161,363.128 350.007 C 362.913 349.874,362.738 350.034,362.738 350.363 C 362.738 350.692,362.587 351.258,362.402 351.621 C 361.524 353.346,360.434 356.918,360.325 358.424 C 360.293 358.874,360.138 359.164,359.981 359.067 C 359.824 358.970,359.693 359.542,359.690 360.339 C 359.685 361.467,359.595 361.661,359.280 361.217 C 358.963 360.770,358.911 360.868,359.039 361.673 C 359.146 362.343,359.008 362.774,358.643 362.915 C 358.235 363.071,358.147 363.465,358.318 364.359 C 358.494 365.276,358.453 365.444,358.157 365.019 C 357.827 364.544,357.773 364.576,357.835 365.209 C 357.875 365.627,357.616 366.630,357.259 367.437 C 356.902 368.243,356.699 368.993,356.808 369.102 C 356.918 369.212,356.757 369.659,356.450 370.097 C 356.144 370.534,355.894 371.281,355.894 371.758 C 355.894 372.234,355.745 372.624,355.563 372.624 C 355.381 372.624,355.141 373.431,355.030 374.417 C 354.919 375.404,354.640 376.273,354.410 376.350 C 354.180 376.427,353.992 377.074,353.992 377.788 C 353.992 378.503,353.811 379.087,353.590 379.087 C 353.368 379.087,353.293 379.259,353.422 379.468 C 353.694 379.908,362.221 379.997,362.487 379.563 C 362.584 379.406,362.767 378.616,362.895 377.807 C 363.023 376.999,363.249 376.143,363.397 375.906 C 363.545 375.669,363.717 375.147,363.780 374.745 C 363.842 374.343,364.043 373.830,364.225 373.604 C 364.614 373.122,365.577 368.847,365.452 368.156 C 365.405 367.894,365.545 367.681,365.763 367.681 C 365.981 367.681,366.160 366.986,366.160 366.137 C 366.160 365.205,366.310 364.687,366.540 364.829 C 366.749 364.958,366.920 364.797,366.920 364.471 C 366.920 363.949,368.106 363.878,376.806 363.878 C 385.340 363.878,386.692 363.956,386.692 364.449 C 386.692 364.762,386.842 365.019,387.025 365.019 C 387.433 365.019,387.957 367.164,387.848 368.389 C 387.797 368.953,387.921 369.192,388.180 369.032 C 388.442 368.870,388.593 369.193,388.593 369.917 C 388.593 370.544,388.748 371.154,388.938 371.271 C 389.127 371.388,389.400 372.339,389.544 373.384 C 389.687 374.429,389.960 375.380,390.150 375.497 C 390.339 375.614,390.494 376.128,390.494 376.638 C 390.494 377.149,390.665 377.567,390.875 377.567 C 391.084 377.567,391.255 378.065,391.255 378.674 L 391.255 379.782 395.532 379.720 L 399.810 379.658 399.755 378.517 C 399.686 377.082,399.474 375.966,399.178 375.475 C 399.052 375.266,398.823 374.496,398.670 373.764 C 398.517 373.032,398.203 372.200,397.972 371.915 C 397.742 371.629,397.534 371.116,397.511 370.774 C 397.396 369.092,397.314 368.792,397.016 368.976 C 396.838 369.086,396.678 368.642,396.659 367.990 C 396.641 367.338,396.469 366.702,396.278 366.577 C 396.087 366.452,395.817 365.837,395.677 365.209 C 395.538 364.582,395.368 363.897,395.300 363.688 C 395.232 363.479,395.035 362.795,394.863 362.167 C 394.691 361.540,394.280 360.800,393.948 360.523 C 393.583 360.218,393.557 360.129,393.881 360.297 C 394.302 360.516,394.355 360.379,394.131 359.660 C 393.974 359.157,393.756 358.275,393.648 357.700 C 393.539 357.125,393.298 356.654,393.113 356.654 C 392.927 356.654,392.776 356.302,392.776 355.871 C 392.776 355.441,392.629 355.179,392.450 355.289 C 392.271 355.400,392.205 355.074,392.302 354.566 C 392.405 354.028,392.232 353.394,391.889 353.052 C 391.565 352.728,391.366 352.122,391.446 351.707 C 391.526 351.291,391.449 350.951,391.276 350.951 C 390.964 350.951,390.483 349.101,390.459 347.814 C 390.453 347.448,390.306 347.148,390.134 347.148 C 389.961 347.148,389.705 346.378,389.564 345.437 C 389.422 344.496,389.146 343.726,388.950 343.726 C 388.754 343.726,388.593 343.424,388.593 343.055 C 388.593 342.687,388.232 341.446,387.790 340.299 C 387.348 339.152,386.899 337.700,386.791 337.072 C 386.684 336.445,386.454 335.752,386.281 335.532 C 386.107 335.313,385.850 334.415,385.710 333.536 C 385.569 332.658,385.305 331.939,385.123 331.939 C 384.940 331.939,384.791 331.607,384.791 331.201 C 384.791 330.795,384.613 330.353,384.395 330.219 C 384.178 330.084,384.099 329.661,384.221 329.278 C 384.342 328.895,384.264 328.471,384.046 328.337 C 383.828 328.202,383.650 327.689,383.650 327.196 C 383.650 326.703,383.457 326.235,383.222 326.156 C 382.821 326.023,382.675 325.391,382.558 323.267 C 382.531 322.784,382.338 322.494,382.129 322.624 C 381.726 322.873,381.628 322.458,381.724 320.913 C 381.771 320.153,381.705 320.076,381.392 320.532 C 381.037 321.050,380.749 319.768,380.944 318.536 C 381.041 317.919,372.994 318.215,372.755 318.838 M304.468 363.945 C 304.410 372.378,304.364 365.589,304.364 348.859 C 304.364 332.129,304.410 325.230,304.468 333.527 C 304.525 341.824,304.525 355.512,304.468 363.945 M186.985 325.784 C 187.068 326.032,187.612 326.236,188.193 326.236 C 188.775 326.236,189.686 326.578,190.218 326.996 C 190.750 327.414,191.371 327.757,191.600 327.757 C 191.828 327.757,192.015 328.099,192.015 328.517 C 192.015 328.935,192.183 329.278,192.388 329.278 C 192.593 329.278,192.878 329.742,193.020 330.310 C 193.163 330.879,193.552 331.636,193.886 331.994 C 194.505 332.659,194.695 340.492,194.115 341.432 C 193.981 341.648,193.978 341.997,194.108 342.208 C 194.238 342.419,194.077 342.694,193.750 342.819 C 193.423 342.944,193.156 343.360,193.156 343.741 C 193.156 344.454,190.193 347.148,189.410 347.148 C 189.170 347.148,188.973 347.319,188.973 347.529 C 188.973 347.738,188.641 347.909,188.235 347.909 C 187.829 347.909,187.418 348.037,187.322 348.194 C 187.225 348.351,184.050 348.429,180.265 348.367 L 173.384 348.256 173.384 336.628 L 173.384 324.999 180.109 325.166 C 184.836 325.283,186.879 325.467,186.985 325.784 M134.773 333.639 C 134.917 334.789,135.193 335.828,135.388 335.948 C 135.582 336.068,135.741 336.584,135.741 337.095 C 135.741 337.605,135.913 338.023,136.122 338.023 C 136.331 338.023,136.502 338.461,136.502 338.996 C 136.502 339.538,136.668 339.866,136.876 339.737 C 137.109 339.594,137.163 339.946,137.019 340.666 C 136.870 341.408,136.941 341.825,137.215 341.825 C 137.450 341.825,137.643 342.255,137.643 342.781 C 137.643 343.306,137.803 344.034,138.000 344.397 C 138.470 345.265,138.930 347.205,138.820 347.852 C 138.772 348.134,138.893 348.266,139.089 348.145 C 139.285 348.024,139.547 348.563,139.670 349.342 C 140.030 351.616,140.140 352.054,140.420 352.334 C 140.565 352.479,140.684 352.997,140.684 353.485 C 140.684 353.973,140.856 354.373,141.065 354.373 C 141.274 354.373,141.445 354.800,141.445 355.323 L 141.445 356.274 133.990 356.274 C 127.348 356.274,126.560 356.208,126.765 355.672 C 126.892 355.342,126.996 354.561,126.996 353.939 C 126.996 353.281,127.155 352.905,127.376 353.042 C 127.591 353.175,127.782 352.813,127.815 352.209 C 127.846 351.621,127.912 350.970,127.961 350.760 C 128.009 350.551,128.069 350.071,128.093 349.692 C 128.117 349.314,128.308 349.110,128.517 349.240 C 128.744 349.380,128.897 348.919,128.897 348.099 C 128.897 347.342,129.052 346.819,129.242 346.936 C 129.431 347.053,129.704 346.293,129.848 345.248 C 129.992 344.202,130.264 343.346,130.454 343.346 C 130.643 343.346,130.801 343.047,130.804 342.681 C 130.807 342.315,131.064 341.284,131.375 340.391 C 131.686 339.498,131.983 338.189,132.035 337.482 C 132.087 336.774,132.282 336.290,132.470 336.405 C 132.657 336.521,132.723 336.162,132.617 335.608 C 132.511 335.054,132.572 334.601,132.752 334.601 C 132.932 334.601,133.080 334.269,133.080 333.863 C 133.080 333.457,133.251 333.019,133.460 332.890 C 133.669 332.760,133.840 332.313,133.840 331.894 C 133.840 330.346,134.521 331.619,134.773 333.639 M16.160 332.699 C 16.031 332.908,15.288 333.080,14.511 333.080 C 13.199 333.080,11.938 333.674,10.714 334.870 C 10.438 335.140,10.043 335.361,9.836 335.361 C 9.630 335.361,9.555 335.514,9.671 335.702 C 9.787 335.889,9.617 336.144,9.294 336.268 C 8.949 336.400,8.804 336.334,8.944 336.108 C 9.075 335.896,9.070 335.214,8.933 334.591 L 8.685 333.460 5.198 333.472 C -0.168 333.491,0.379 330.784,0.386 357.266 C 0.390 372.109,0.520 379.839,0.760 379.468 C 1.006 379.087,1.131 379.056,1.135 379.373 C 1.142 379.928,8.563 380.070,8.902 379.521 C 9.013 379.342,9.119 371.593,9.137 362.303 C 9.156 352.652,9.321 345.172,9.522 344.854 C 9.829 344.368,9.877 344.369,9.895 344.867 C 9.906 345.181,10.157 344.881,10.453 344.202 C 10.748 343.522,11.234 342.966,11.532 342.966 C 11.831 342.966,12.319 342.597,12.618 342.147 C 13.114 341.401,13.465 341.334,16.598 341.391 L 20.034 341.453 20.100 337.292 L 20.166 333.130 19.098 333.161 C 18.510 333.177,17.661 332.994,17.212 332.754 C 16.677 332.468,16.315 332.449,16.160 332.699 M41.299 332.592 C 41.150 332.741,39.830 332.973,38.367 333.108 C 33.867 333.520,29.575 336.455,27.564 340.494 C 27.147 341.331,26.669 342.116,26.501 342.240 C 26.333 342.364,26.232 342.621,26.276 342.811 C 26.364 343.189,25.998 344.306,25.448 345.337 C 25.254 345.700,25.095 346.503,25.095 347.121 C 25.095 347.739,24.924 348.350,24.716 348.478 C 23.888 348.990,24.644 368.278,25.515 368.838 C 25.692 368.951,25.913 369.465,26.008 369.978 C 26.102 370.492,26.212 370.998,26.253 371.103 C 26.293 371.207,26.306 371.421,26.281 371.578 C 26.256 371.735,26.388 371.863,26.575 371.863 C 26.761 371.863,27.021 372.291,27.152 372.814 C 27.284 373.337,27.559 373.764,27.764 373.764 C 27.969 373.764,28.137 373.943,28.137 374.162 C 28.137 374.804,31.417 377.947,32.087 377.947 C 32.424 377.947,32.702 378.075,32.704 378.232 C 32.706 378.389,33.422 378.859,34.295 379.278 C 37.695 380.907,52.461 380.058,52.470 378.232 C 52.471 378.075,52.718 377.947,53.020 377.947 C 53.322 377.947,53.823 377.585,54.132 377.143 C 54.442 376.700,55.222 376.018,55.865 375.627 C 57.134 374.855,57.578 372.242,56.550 371.597 C 56.283 371.430,55.740 370.779,55.343 370.152 C 54.483 368.795,53.633 368.087,52.852 368.079 C 52.345 368.073,52.345 368.113,52.852 368.441 C 53.320 368.744,53.281 368.811,52.631 368.815 C 52.180 368.819,51.621 369.230,51.331 369.772 C 51.051 370.295,50.594 370.722,50.316 370.722 C 50.038 370.722,49.853 370.914,49.905 371.147 C 49.957 371.381,49.743 371.626,49.430 371.692 C 49.116 371.757,48.004 372.126,46.958 372.510 C 44.595 373.379,38.113 373.071,37.549 372.062 C 37.370 371.744,37.005 371.483,36.737 371.483 C 36.469 371.483,36.021 371.055,35.741 370.532 C 35.462 370.010,35.080 369.582,34.894 369.582 C 34.708 369.582,34.662 369.411,34.791 369.202 C 34.920 368.992,34.858 368.821,34.653 368.821 C 34.358 368.821,33.852 367.457,33.666 366.160 C 33.651 366.055,33.523 365.788,33.381 365.566 C 33.240 365.345,33.083 364.275,33.034 363.190 C 32.984 362.105,32.791 361.217,32.604 361.217 C 32.417 361.217,32.321 360.917,32.392 360.551 C 32.509 359.938,33.506 359.871,45.062 359.696 L 57.605 359.506 57.711 354.248 C 57.769 351.357,57.670 349.082,57.490 349.193 C 57.085 349.443,57.148 348.268,57.576 347.574 C 57.757 347.282,57.726 346.959,57.505 346.821 C 57.134 346.588,56.609 344.270,56.608 342.863 C 56.608 342.492,56.447 342.288,56.251 342.410 C 56.054 342.531,55.894 342.286,55.894 341.865 C 55.894 340.844,55.107 339.163,54.628 339.163 C 54.418 339.163,54.350 339.060,54.477 338.933 C 54.807 338.602,53.870 337.681,53.458 337.931 C 53.269 338.046,53.220 337.969,53.350 337.760 C 53.665 337.249,51.801 335.554,50.380 335.058 C 49.753 334.840,49.496 334.638,49.810 334.610 C 51.249 334.480,46.727 333.120,44.794 333.101 C 43.604 333.089,42.525 332.909,42.395 332.700 C 42.119 332.253,41.681 332.210,41.299 332.592 M377.738 334.038 C 377.880 334.983,378.128 335.674,378.290 335.574 C 378.452 335.474,378.609 336.014,378.637 336.774 C 378.666 337.535,378.838 338.255,379.021 338.375 C 379.203 338.495,379.465 339.318,379.604 340.204 C 379.742 341.090,380.168 342.373,380.549 343.056 C 380.931 343.738,381.358 345.135,381.497 346.159 C 381.636 347.184,381.899 348.211,382.082 348.441 C 382.264 348.671,382.531 349.668,382.674 350.657 C 382.817 351.645,383.095 352.553,383.292 352.675 C 383.489 352.797,383.650 353.304,383.650 353.802 C 383.650 354.300,383.801 354.801,383.985 354.915 C 386.056 356.195,384.733 356.465,376.931 356.354 C 369.765 356.252,369.217 356.196,369.538 355.593 C 369.728 355.236,369.944 354.430,370.017 353.802 C 370.090 353.175,370.291 352.558,370.465 352.431 C 370.638 352.305,370.875 351.492,370.991 350.625 C 371.108 349.758,371.361 349.049,371.555 349.049 C 371.749 349.049,371.821 348.909,371.715 348.737 C 371.609 348.565,371.752 347.980,372.034 347.437 C 372.316 346.894,372.669 345.709,372.818 344.803 C 372.967 343.897,373.211 342.985,373.359 342.776 C 373.910 341.996,374.610 339.230,374.360 338.824 C 374.217 338.592,374.244 338.403,374.421 338.403 C 374.598 338.403,374.771 338.033,374.805 337.582 C 374.839 337.130,375.041 336.653,375.254 336.521 C 375.467 336.390,375.676 335.690,375.719 334.966 C 375.897 331.970,377.329 331.312,377.738 334.038 M42.427 340.304 C 42.933 340.304,43.346 340.107,43.346 339.866 C 43.346 339.625,43.683 339.816,44.095 340.291 C 44.512 340.772,45.090 341.060,45.398 340.942 C 45.954 340.729,46.933 341.533,46.565 341.901 C 46.458 342.009,46.663 342.335,47.022 342.626 C 47.587 343.085,47.631 343.080,47.350 342.586 C 47.172 342.271,47.172 342.147,47.351 342.310 C 47.529 342.472,47.732 342.978,47.801 343.434 C 47.871 343.890,48.094 344.366,48.297 344.491 C 48.500 344.617,48.775 345.822,48.910 347.170 C 49.044 348.517,49.344 349.866,49.577 350.168 C 49.899 350.586,49.887 350.648,49.525 350.431 C 48.946 350.083,48.920 350.379,49.443 351.356 C 49.827 352.073,49.619 352.091,40.983 352.085 C 36.113 352.082,32.333 351.950,32.582 351.792 C 32.831 351.634,33.075 350.610,33.125 349.516 C 33.175 348.423,33.335 347.529,33.480 347.529 C 33.626 347.529,33.855 346.980,33.989 346.309 C 34.339 344.560,35.477 342.227,35.986 342.215 C 36.225 342.210,36.519 341.949,36.639 341.635 C 36.760 341.321,37.216 341.065,37.653 341.065 C 38.090 341.065,38.363 340.928,38.260 340.760 C 38.157 340.593,38.703 340.415,39.473 340.364 C 40.244 340.313,40.946 340.065,41.033 339.812 C 41.154 339.463,41.229 339.467,41.350 339.829 C 41.437 340.090,41.922 340.304,42.427 340.304 M336.787 372.123 C 336.725 376.058,336.674 372.947,336.674 365.209 C 336.674 357.471,336.724 354.252,336.786 358.055 C 336.848 361.858,336.848 368.189,336.787 372.123 " stroke="none" fill="#a4a4a4" fill-rule="evenodd"></path><path id="path3" d="M132.491 133.870 C 132.328 134.133,121.265 134.247,98.539 134.219 C 79.999 134.197,64.633 134.188,64.392 134.199 C 64.066 134.215,63.943 148.539,63.906 190.875 L 63.856 247.529 64.650 247.529 C 65.087 247.529,65.366 247.400,65.271 247.243 C 65.037 246.856,66.014 245.989,66.329 246.304 C 66.467 246.442,66.468 246.262,66.330 245.904 C 66.164 245.471,66.311 245.165,66.772 244.988 C 67.152 244.842,68.257 243.904,69.228 242.902 C 70.198 241.900,71.112 241.200,71.258 241.346 C 71.404 241.492,71.411 241.319,71.273 240.961 C 71.108 240.530,71.253 240.223,71.702 240.050 C 72.579 239.714,88.213 224.064,88.213 223.523 C 88.213 223.291,88.497 223.222,88.867 223.363 C 89.226 223.501,89.404 223.498,89.262 223.356 C 89.119 223.213,89.852 222.279,90.889 221.279 C 91.927 220.279,92.776 219.312,92.776 219.130 C 92.776 217.821,94.448 217.401,95.356 218.482 C 100.370 224.457,106.651 230.739,111.776 234.905 C 113.757 236.515,116.108 238.603,117.000 239.544 C 117.893 240.485,118.630 241.084,118.639 240.875 C 118.647 240.665,118.829 240.794,119.042 241.160 C 119.255 241.526,119.600 241.825,119.809 241.825 C 120.018 241.825,120.585 242.253,121.069 242.776 C 121.554 243.298,122.156 243.726,122.407 243.726 C 122.789 243.726,125.205 245.329,125.856 246.013 C 125.960 246.123,126.516 246.420,127.091 246.673 C 127.666 246.925,128.137 247.270,128.137 247.439 C 128.137 247.609,128.519 247.776,128.987 247.811 C 129.454 247.846,129.896 248.054,129.969 248.272 C 130.042 248.490,130.344 248.669,130.640 248.669 C 130.936 248.669,131.179 248.822,131.179 249.008 C 131.179 249.195,131.567 249.445,132.042 249.564 C 132.516 249.683,133.283 250.133,133.746 250.564 C 134.208 250.994,135.103 251.450,135.734 251.576 C 136.366 251.703,136.882 251.944,136.882 252.113 C 136.882 252.282,137.267 252.540,137.738 252.686 C 138.208 252.832,139.047 253.271,139.602 253.662 C 140.158 254.053,140.970 254.373,141.409 254.373 C 141.847 254.373,142.205 254.544,142.205 254.753 C 142.205 254.962,142.419 255.134,142.681 255.135 C 142.942 255.137,143.615 255.377,144.176 255.670 C 144.737 255.963,145.722 256.318,146.366 256.459 C 147.071 256.614,147.434 256.880,147.279 257.130 C 147.113 257.400,147.260 257.453,147.704 257.282 C 148.079 257.139,148.644 257.236,148.961 257.498 C 149.277 257.761,150.239 258.166,151.099 258.398 C 151.958 258.630,152.914 258.888,153.223 258.973 C 153.532 259.057,154.016 259.341,154.299 259.604 C 154.582 259.868,154.965 259.990,155.148 259.877 C 155.332 259.763,155.789 259.834,156.163 260.035 C 156.733 260.341,157.656 260.723,158.555 261.025 C 158.660 261.060,159.259 261.213,159.886 261.366 C 160.513 261.518,161.324 261.804,161.687 262.000 C 162.050 262.197,162.934 262.357,163.651 262.357 C 164.369 262.357,165.013 262.517,165.082 262.712 C 165.202 263.045,168.397 263.548,170.228 263.522 C 170.688 263.515,171.169 263.678,171.296 263.884 C 171.424 264.090,171.917 264.259,172.393 264.259 C 172.868 264.259,173.379 264.381,173.529 264.530 C 173.678 264.679,174.519 264.833,175.398 264.871 C 176.277 264.909,176.996 264.972,176.996 265.011 C 176.996 265.050,177.766 265.137,178.707 265.204 C 179.648 265.272,181.188 265.457,182.129 265.617 C 183.070 265.777,184.997 265.922,186.411 265.939 C 188.286 265.961,188.933 266.097,188.802 266.439 C 188.661 266.806,188.779 266.811,189.337 266.462 C 189.889 266.117,190.182 266.123,190.620 266.486 C 191.011 266.811,191.265 266.831,191.437 266.552 C 191.575 266.329,191.889 266.272,192.134 266.423 C 192.631 266.730,203.042 266.841,203.042 266.540 C 203.042 266.332,203.976 266.271,208.543 266.184 C 210.209 266.153,211.664 265.984,211.775 265.810 C 211.886 265.636,213.346 265.393,215.019 265.269 C 219.749 264.920,220.329 264.847,220.535 264.576 C 220.640 264.437,221.497 264.259,222.439 264.180 C 223.380 264.101,224.320 263.935,224.528 263.811 C 224.876 263.603,227.829 262.980,228.707 262.930 C 228.916 262.918,229.341 262.749,229.651 262.555 C 230.281 262.162,231.317 261.956,232.618 261.965 C 233.095 261.968,233.577 261.735,233.688 261.446 C 233.799 261.157,234.201 261.002,234.582 261.102 C 234.964 261.201,235.390 261.097,235.531 260.870 C 235.671 260.642,236.204 260.456,236.714 260.456 C 237.225 260.456,237.643 260.322,237.643 260.158 C 237.643 259.993,237.942 259.826,238.308 259.786 C 240.371 259.560,241.825 259.191,241.825 258.894 C 241.825 258.708,242.243 258.555,242.753 258.555 C 243.264 258.555,243.779 258.397,243.898 258.204 C 244.018 258.011,244.628 257.741,245.255 257.603 C 245.929 257.455,246.291 257.186,246.142 256.945 C 245.995 256.705,246.069 256.647,246.321 256.803 C 246.876 257.146,249.850 256.266,249.585 255.837 C 249.475 255.659,249.660 255.513,249.996 255.513 C 250.333 255.513,251.156 255.223,251.825 254.868 C 252.494 254.513,253.213 254.214,253.422 254.203 C 253.631 254.192,254.265 253.868,254.831 253.484 C 255.397 253.100,256.065 252.913,256.316 253.068 C 256.604 253.246,256.672 253.188,256.500 252.910 C 256.325 252.627,256.541 252.471,257.110 252.471 C 257.595 252.471,258.210 252.123,258.476 251.696 C 258.742 251.270,259.126 251.023,259.328 251.148 C 259.530 251.273,259.696 251.166,259.696 250.910 C 259.696 250.653,259.808 250.556,259.946 250.694 C 260.084 250.831,260.444 250.738,260.747 250.487 C 261.462 249.893,262.621 249.215,264.179 248.478 C 264.867 248.152,265.329 247.722,265.205 247.521 C 265.075 247.311,265.256 247.263,265.632 247.407 C 266.045 247.566,266.193 247.509,266.035 247.253 C 265.831 246.925,267.527 246.170,267.995 246.382 C 268.063 246.413,268.439 246.069,268.830 245.617 C 269.221 245.166,269.722 244.908,269.942 245.045 C 270.162 245.181,270.342 245.105,270.342 244.877 C 270.342 244.649,270.642 244.349,271.008 244.211 C 271.374 244.072,271.901 243.734,272.179 243.459 C 272.457 243.184,272.840 243.055,273.030 243.172 C 273.220 243.289,273.282 243.142,273.168 242.844 C 272.949 242.273,273.973 241.674,274.555 242.034 C 274.743 242.150,274.784 241.951,274.646 241.592 C 274.469 241.131,274.534 241.026,274.869 241.233 C 275.149 241.405,275.625 241.236,276.028 240.820 C 277.239 239.572,278.509 238.604,278.813 238.699 C 278.976 238.749,279.208 238.532,279.329 238.216 C 279.450 237.901,279.873 237.643,280.269 237.643 C 280.665 237.643,280.961 237.514,280.928 237.357 C 280.803 236.767,281.471 235.741,281.980 235.741 C 282.271 235.741,282.510 235.591,282.510 235.407 C 282.510 235.224,283.023 234.861,283.650 234.601 C 284.278 234.341,284.791 233.864,284.791 233.541 C 284.791 233.218,284.902 233.064,285.037 233.200 C 285.173 233.335,285.559 233.150,285.896 232.788 C 286.233 232.426,287.480 231.231,288.669 230.133 C 289.857 229.035,290.711 228.126,290.567 228.113 C 290.422 228.100,290.689 227.934,291.160 227.745 C 291.630 227.556,292.015 227.129,292.015 226.796 C 292.015 226.463,292.186 226.297,292.395 226.426 C 292.605 226.555,292.776 226.493,292.776 226.287 C 292.776 225.941,293.658 224.904,296.115 222.361 C 296.658 221.798,297.268 221.440,297.470 221.564 C 297.671 221.689,297.721 221.605,297.581 221.378 C 297.441 221.151,297.503 220.856,297.719 220.722 C 297.935 220.589,298.013 220.320,297.893 220.126 C 297.772 219.931,297.941 219.772,298.267 219.772 C 298.593 219.772,298.859 219.534,298.859 219.242 C 298.859 218.951,299.116 218.614,299.430 218.494 C 299.743 218.373,300.000 218.013,300.000 217.693 C 300.000 217.372,300.270 217.110,300.601 217.110 C 300.947 217.110,301.450 216.478,301.788 215.619 C 302.175 214.632,302.552 214.196,302.902 214.330 C 303.258 214.467,303.357 214.342,303.207 213.950 C 303.084 213.629,302.740 213.273,302.442 213.159 C 302.145 213.045,301.901 212.690,301.901 212.369 C 301.901 212.049,301.720 211.787,301.498 211.787 C 301.277 211.787,301.218 211.590,301.367 211.348 C 301.531 211.083,301.472 211.012,301.219 211.169 C 300.988 211.311,300.614 211.083,300.388 210.661 C 300.162 210.239,299.779 209.935,299.536 209.985 C 299.293 210.035,299.023 209.744,298.935 209.337 C 298.847 208.931,298.409 208.308,297.962 207.954 C 295.965 206.371,295.092 205.374,295.543 205.191 C 295.799 205.088,295.604 204.989,295.111 204.973 C 294.480 204.952,294.279 204.776,294.432 204.377 C 294.558 204.050,294.455 203.850,294.188 203.902 C 293.934 203.952,293.769 203.779,293.821 203.517 C 293.874 203.256,293.788 203.062,293.631 203.087 C 292.772 203.223,292.337 202.981,292.531 202.476 C 292.654 202.156,292.555 201.950,292.304 202.001 C 292.060 202.051,291.852 201.851,291.842 201.557 C 291.833 201.263,291.552 200.983,291.218 200.934 C 290.884 200.885,289.858 200.106,288.937 199.202 C 288.016 198.298,287.474 197.689,287.733 197.849 C 288.055 198.046,288.132 197.951,287.978 197.548 C 287.853 197.224,287.460 196.958,287.105 196.958 C 286.749 196.958,285.954 196.278,285.339 195.446 C 284.724 194.615,284.049 193.926,283.840 193.915 C 283.631 193.905,283.051 193.233,282.551 192.422 C 282.052 191.611,281.229 190.760,280.724 190.529 C 280.219 190.299,279.910 189.940,280.039 189.732 C 280.168 189.524,280.115 189.354,279.922 189.354 C 279.728 189.354,278.258 188.070,276.653 186.502 C 275.049 184.933,273.571 183.650,273.370 183.650 C 273.169 183.650,273.000 183.436,272.995 183.175 C 272.991 182.913,272.634 182.272,272.202 181.749 C 271.770 181.226,271.527 181.012,271.662 181.274 C 271.798 181.535,271.727 181.749,271.505 181.749 C 271.136 181.749,270.946 181.223,271.058 180.513 C 271.082 180.356,270.801 180.228,270.432 180.228 C 270.064 180.228,269.593 179.843,269.387 179.373 C 269.180 178.902,268.755 178.509,268.441 178.500 C 268.127 178.490,267.904 178.304,267.945 178.087 C 267.986 177.869,265.548 175.260,262.527 172.288 C 259.506 169.316,257.034 166.742,257.034 166.567 C 257.034 166.392,256.692 166.159,256.274 166.050 C 255.856 165.940,255.513 165.568,255.513 165.222 C 255.513 164.877,255.342 164.700,255.133 164.829 C 254.924 164.958,254.753 164.883,254.753 164.661 C 254.753 164.440,254.544 164.259,254.290 164.259 C 253.709 164.259,252.045 166.158,252.285 166.546 C 252.383 166.705,252.208 167.045,251.897 167.304 C 251.586 167.562,251.331 168.020,251.331 168.320 C 251.331 168.620,251.160 168.760,250.951 168.631 C 250.741 168.502,250.570 168.663,250.570 168.989 C 250.570 169.315,250.392 169.582,250.173 169.582 C 249.955 169.582,249.827 169.881,249.888 170.247 C 249.951 170.619,249.790 170.871,249.525 170.817 C 249.263 170.765,249.049 170.916,249.049 171.153 C 249.049 171.390,248.750 171.863,248.384 172.204 C 247.623 172.913,246.931 173.953,246.396 175.190 C 246.193 175.661,245.927 176.046,245.804 176.046 C 245.682 176.046,245.688 175.875,245.817 175.665 C 245.947 175.456,245.871 175.285,245.650 175.285 C 245.428 175.285,245.247 175.554,245.247 175.883 C 245.247 176.614,239.113 182.734,238.037 183.075 C 237.338 183.297,237.097 183.713,237.213 184.492 C 237.235 184.641,236.999 184.666,236.687 184.546 C 236.359 184.420,236.119 184.546,236.116 184.845 C 236.111 185.243,236.026 185.231,235.741 184.791 C 235.449 184.338,235.370 184.417,235.361 185.171 C 235.352 185.925,235.273 186.004,234.981 185.551 C 234.735 185.171,234.610 185.139,234.607 185.456 C 234.603 185.718,234.362 185.932,234.071 185.932 C 233.780 185.932,233.443 186.188,233.323 186.502 C 233.202 186.816,232.799 187.075,232.426 187.078 C 231.850 187.083,231.834 187.139,232.319 187.452 C 232.816 187.773,232.809 187.822,232.271 187.827 C 231.931 187.830,231.439 188.089,231.179 188.403 C 230.918 188.717,230.462 188.973,230.165 188.973 C 229.868 188.973,229.163 189.401,228.599 189.924 C 228.036 190.447,227.307 190.875,226.981 190.875 C 226.655 190.875,226.185 191.078,225.937 191.326 C 225.689 191.574,225.112 191.834,224.656 191.903 C 224.199 191.973,223.593 192.362,223.309 192.767 C 223.025 193.173,222.558 193.414,222.271 193.304 C 221.985 193.194,221.637 193.287,221.499 193.510 C 221.361 193.734,220.916 193.916,220.510 193.916 C 220.104 193.916,219.772 194.068,219.772 194.254 C 219.772 194.570,217.265 195.262,216.635 195.121 C 216.478 195.086,216.350 195.228,216.350 195.437 C 216.350 195.646,215.847 195.817,215.232 195.817 C 214.617 195.817,214.016 195.975,213.897 196.168 C 213.778 196.361,212.527 196.629,211.118 196.764 C 209.708 196.900,208.127 197.168,207.605 197.361 C 207.082 197.553,205.664 197.739,204.454 197.774 C 203.243 197.809,202.177 197.960,202.084 198.111 C 201.872 198.453,194.779 198.328,194.427 197.976 C 194.286 197.835,193.599 197.719,192.902 197.719 C 192.205 197.719,191.635 197.554,191.635 197.354 C 191.635 197.153,191.164 197.005,190.589 197.025 C 188.590 197.095,185.898 196.832,185.724 196.549 C 185.627 196.393,185.035 196.345,184.409 196.444 C 183.782 196.543,183.270 196.454,183.270 196.246 C 183.270 196.038,182.723 195.884,182.054 195.903 C 181.386 195.922,180.776 195.749,180.699 195.519 C 180.622 195.288,180.314 195.194,180.013 195.309 C 179.713 195.424,179.468 195.367,179.468 195.181 C 179.468 194.995,178.997 194.804,178.422 194.756 C 177.847 194.709,176.637 194.323,175.732 193.898 C 174.828 193.473,173.588 193.026,172.976 192.903 C 172.364 192.781,171.863 192.531,171.863 192.348 C 171.863 192.165,171.531 192.015,171.125 192.015 C 170.719 192.015,170.289 191.857,170.170 191.664 C 170.051 191.471,169.434 191.199,168.799 191.060 C 168.164 190.920,167.440 190.479,167.191 190.080 C 166.941 189.680,166.618 189.354,166.473 189.354 C 166.328 189.354,165.728 189.170,165.139 188.947 C 164.550 188.723,164.029 188.549,163.980 188.560 C 163.648 188.635,162.154 186.807,162.299 186.502 C 162.398 186.293,162.342 186.245,162.175 186.397 C 161.831 186.707,159.696 185.562,159.696 185.067 C 159.696 184.890,159.529 184.849,159.325 184.975 C 159.121 185.101,158.309 184.585,157.519 183.827 C 151.451 178.008,149.430 176.019,149.430 175.867 C 149.430 175.704,147.843 173.845,146.293 172.192 C 145.927 171.802,145.627 171.325,145.627 171.132 C 145.627 170.939,145.201 170.275,144.681 169.656 L 143.735 168.531 146.012 166.247 C 147.264 164.991,148.289 163.846,148.289 163.703 C 148.289 163.340,149.310 162.358,149.688 162.357 C 149.859 162.356,150.644 161.672,151.430 160.836 C 152.217 160.000,152.755 159.316,152.626 159.316 C 152.382 159.316,153.905 157.903,155.887 156.292 C 156.518 155.779,157.034 155.178,157.034 154.957 C 157.034 154.736,157.658 154.044,158.420 153.418 C 160.816 151.453,172.058 140.195,171.958 139.862 C 171.906 139.687,172.042 139.544,172.262 139.544 C 172.813 139.544,177.947 134.444,177.947 133.897 C 177.947 133.306,132.857 133.279,132.491 133.870 M304.182 348.783 L 304.373 379.278 304.470 349.071 C 304.524 332.457,304.438 318.735,304.280 318.576 C 304.122 318.418,304.078 332.011,304.182 348.783 M336.673 331.179 C 336.673 338.394,336.724 341.345,336.786 337.738 C 336.849 334.130,336.849 328.227,336.786 324.620 C 336.724 321.012,336.673 323.964,336.673 331.179 M287.791 321.198 C 288.038 321.668,288.519 322.053,288.860 322.053 C 289.201 322.053,289.409 322.009,289.322 321.954 C 289.235 321.900,288.754 321.515,288.253 321.099 L 287.342 320.342 287.791 321.198 M208.875 325.184 C 209.117 325.338,212.738 325.434,216.920 325.398 C 225.061 325.327,224.046 325.170,214.388 325.006 C 211.113 324.950,208.632 325.031,208.875 325.184 M176.158 325.378 C 177.788 325.449,180.355 325.449,181.861 325.377 C 183.368 325.305,182.034 325.247,178.897 325.247 C 175.760 325.248,174.528 325.307,176.158 325.378 M236.427 325.379 C 238.582 325.447,242.004 325.447,244.032 325.378 C 246.059 325.310,244.297 325.254,240.114 325.255 C 235.932 325.255,234.272 325.311,236.427 325.379 M194.032 333.047 C 194.199 334.139,194.677 334.509,194.677 333.546 C 194.677 333.105,194.505 332.638,194.295 332.509 C 194.077 332.374,193.964 332.603,194.032 333.047 M364.639 344.043 C 364.639 344.496,364.795 344.867,364.985 344.867 C 365.372 344.867,365.314 343.895,364.903 343.484 C 364.758 343.338,364.639 343.590,364.639 344.043 M318.750 344.391 C 322.057 344.454,327.361 344.454,330.537 344.391 C 333.713 344.327,331.008 344.275,324.525 344.276 C 318.042 344.276,315.443 344.328,318.750 344.391 M57.427 347.529 C 57.149 348.225,57.213 349.403,57.513 349.103 C 57.707 348.909,57.784 348.432,57.684 348.044 C 57.584 347.656,57.469 347.424,57.427 347.529 M336.674 365.209 C 336.674 372.947,336.725 376.058,336.787 372.123 C 336.848 368.189,336.848 361.858,336.786 358.055 C 336.724 354.252,336.674 357.471,336.674 365.209 M78.093 369.898 C 78.487 370.341,78.968 370.606,79.164 370.485 C 79.580 370.228,79.565 370.212,78.327 369.578 C 77.379 369.092,77.378 369.093,78.093 369.898 M57.040 373.289 C 57.037 373.760,57.205 374.144,57.414 374.144 C 57.891 374.144,57.891 373.741,57.414 373.004 C 57.116 372.543,57.045 372.597,57.040 373.289 " stroke="none" fill="#acacac" fill-rule="evenodd"></path><path id="path4" d="M63.878 133.799 C 63.878 134.303,131.805 134.364,132.117 133.860 C 132.289 133.582,121.958 133.460,98.121 133.460 C 78.362 133.460,63.878 133.603,63.878 133.799 M93.916 218.061 C 93.916 218.375,94.173 218.631,94.487 218.631 C 94.800 218.631,95.057 218.821,95.057 219.053 C 95.057 219.285,95.784 220.219,96.673 221.127 C 98.926 223.429,99.446 224.080,99.325 224.450 C 99.268 224.627,99.377 224.675,99.569 224.556 C 99.760 224.438,100.200 224.773,100.545 225.301 C 100.891 225.828,101.960 226.982,102.920 227.864 C 103.880 228.746,104.937 229.767,105.269 230.133 C 105.601 230.499,105.998 230.798,106.151 230.798 C 106.305 230.798,107.342 231.697,108.456 232.795 C 109.570 233.893,111.041 235.219,111.726 235.741 C 113.998 237.478,114.437 237.908,114.188 238.156 C 114.053 238.292,114.219 238.403,114.558 238.403 C 114.897 238.403,115.610 238.839,116.142 239.371 C 117.053 240.281,117.438 240.247,116.819 239.311 C 116.666 239.078,114.829 237.480,112.738 235.758 C 107.315 231.295,101.219 225.318,95.947 219.297 C 94.258 217.367,93.916 217.159,93.916 218.061 " stroke="none" fill="#6a94d7" fill-rule="evenodd"></path></g></svg>